<svg width="34" height="34" viewBox="0 0 34 34" fill="none" xmlns="http://www.w3.org/2000/svg">
<path fill-rule="evenodd" clip-rule="evenodd" d="M31.3714 0.159369C31.5253 0.254557 31.6523 0.387479 31.7405 0.545531C31.8286 0.703583 31.8749 0.881528 31.875 1.06249V32.9375C31.875 33.2193 31.7631 33.4895 31.5638 33.6888C31.3645 33.8881 31.0943 34 30.8125 34H24.4375C24.1557 34 23.8855 33.8881 23.6862 33.6888C23.4869 33.4895 23.375 33.2193 23.375 32.9375V29.75H21.25V32.9375C21.25 33.2193 21.1381 33.4895 20.9388 33.6888C20.7395 33.8881 20.4693 34 20.1875 34H1.0625C0.780707 34 0.510456 33.8881 0.311199 33.6888C0.111942 33.4895 0 33.2193 0 32.9375V21.25C0.000169249 21.0271 0.0704397 20.8099 0.200866 20.6291C0.331291 20.4483 0.515266 20.3132 0.72675 20.2427L12.75 16.235V9.56249C12.75 9.36534 12.8049 9.17207 12.9084 9.00432C13.012 8.83657 13.1602 8.70094 13.3365 8.61262L30.3365 0.112619C30.4987 0.0314567 30.6789 -0.00685635 30.86 0.00132679C31.0412 0.00950992 31.2172 0.0639169 31.3714 0.159369ZM12.75 18.4747L2.125 22.015V31.875H12.75V18.4747ZM14.875 31.875H19.125V28.6875C19.125 28.4057 19.2369 28.1354 19.4362 27.9362C19.6355 27.7369 19.9057 27.625 20.1875 27.625H24.4375C24.7193 27.625 24.9895 27.7369 25.1888 27.9362C25.3881 28.1354 25.5 28.4057 25.5 28.6875V31.875H29.75V2.78162L14.875 10.2191V31.875Z" fill="#7C5057"/>
<path d="M4.25 23.375H6.375V25.5H4.25V23.375ZM8.5 23.375H10.625V25.5H8.5V23.375ZM4.25 27.625H6.375V29.75H4.25V27.625ZM8.5 27.625H10.625V29.75H8.5V27.625ZM17 19.125H19.125V21.25H17V19.125ZM21.25 19.125H23.375V21.25H21.25V19.125ZM17 23.375H19.125V25.5H17V23.375ZM21.25 23.375H23.375V25.5H21.25V23.375ZM25.5 19.125H27.625V21.25H25.5V19.125ZM25.5 23.375H27.625V25.5H25.5V23.375ZM17 14.875H19.125V17H17V14.875ZM21.25 14.875H23.375V17H21.25V14.875ZM25.5 14.875H27.625V17H25.5V14.875ZM17 10.625H19.125V12.75H17V10.625ZM21.25 10.625H23.375V12.75H21.25V10.625ZM25.5 10.625H27.625V12.75H25.5V10.625ZM25.5 6.375H27.625V8.5H25.5V6.375Z" fill="#7C5057"/>
</svg>
