<svg width="36" height="36" viewBox="0 0 36 36" fill="none" xmlns="http://www.w3.org/2000/svg">
<path d="M18 15.75H20.25V18H18V15.75ZM22.5 15.75H24.75V18H22.5V15.75ZM27 15.75H29.25V18H27V15.75ZM18 20.25H20.25V22.5H18V20.25ZM22.5 20.25H24.75V22.5H22.5V20.25ZM27 20.25H29.25V22.5H27V20.25ZM18 24.75H20.25V27H18V24.75ZM22.5 24.75H24.75V27H22.5V24.75ZM27 24.75H29.25V27H27V24.75ZM18 11.25H29.25V13.5H18V11.25Z" fill="#7C5057"/>
<path d="M31.5 6.75H15.75V5.625C15.7494 5.02845 15.5122 4.4565 15.0903 4.03467C14.6685 3.61284 14.0966 3.3756 13.5 3.375H9C8.40345 3.3756 7.8315 3.61284 7.40967 4.03467C6.98784 4.4565 6.7506 5.02845 6.75 5.625V6.75H4.5C3.90345 6.7506 3.3315 6.98784 2.90967 7.40967C2.48784 7.8315 2.2506 8.40345 2.25 9V29.25C2.2506 29.8466 2.48784 30.4185 2.90967 30.8403C3.3315 31.2622 3.90345 31.4994 4.5 31.5H31.5C32.0966 31.4994 32.6685 31.2622 33.0903 30.8403C33.5122 30.4185 33.7494 29.8466 33.75 29.25V9C33.7494 8.40345 33.5122 7.8315 33.0903 7.40967C32.6685 6.98784 32.0966 6.7506 31.5 6.75ZM9 5.625H13.5V24.75H9V5.625ZM31.5 29.25H4.5V9H6.75V24.75C6.7506 25.3466 6.98784 25.9185 7.40967 26.3403C7.8315 26.7622 8.40345 26.9994 9 27H13.5C14.0966 26.9994 14.6685 26.7622 15.0903 26.3403C15.5122 25.9185 15.7494 25.3466 15.75 24.75V9H31.5V29.25Z" fill="#7C5057"/>
</svg>
