<?xml version="1.0" encoding="utf-8"?>
<!-- Generator: Adobe Illustrator 16.0.0, SVG Export Plug-In . SVG Version: 6.00 Build 0)  -->
<!DOCTYPE svg PUBLIC "-//W3C//DTD SVG 1.1//EN" "http://www.w3.org/Graphics/SVG/1.1/DTD/svg11.dtd">
<svg version="1.1" id="Layer_1" xmlns="http://www.w3.org/2000/svg" xmlns:xlink="http://www.w3.org/1999/xlink" x="0px" y="0px"
	 width="48px" height="48px" viewBox="0 0 48 48" enable-background="new 0 0 48 48" xml:space="preserve">
<path fill="#73444C" d="M39,40H13c-0.8,0-1.5-0.3-2.1-0.9C10.3,38.5,10,37.8,10,37V5c0-0.8,0.3-1.5,0.9-2.1S12.2,2,13,2h17.4
	L42,13.6V37c0,0.8-0.3,1.5-0.9,2.1C40.5,39.7,39.8,40,39,40z M28.9,14.9V5H13l0,0l0,0v32l0,0l0,0h26l0,0l0,0V14.9H28.9z M7,46
	c-0.8,0-1.5-0.3-2.1-0.9C4.3,44.5,4,43.8,4,43V12.05h3V43l0,0l0,0h24.9v3H7z M13,5v9.9V5v9.9V37l0,0l0,0l0,0l0,0V5L13,5L13,5z"/>
</svg>
