<?xml version="1.0" encoding="utf-8"?>
<!-- Generator: Adobe Illustrator 16.0.0, SVG Export Plug-In . SVG Version: 6.00 Build 0)  -->
<!DOCTYPE svg PUBLIC "-//W3C//DTD SVG 1.1//EN" "http://www.w3.org/Graphics/SVG/1.1/DTD/svg11.dtd">
<svg version="1.1" id="Layer_1" xmlns="http://www.w3.org/2000/svg" xmlns:xlink="http://www.w3.org/1999/xlink" x="0px" y="0px"
	 width="48px" height="48px" viewBox="0 0 48 48" enable-background="new 0 0 48 48" xml:space="preserve">
<path fill="#73444C" d="M11,44c-0.8,0-1.5-0.3-2.1-0.9C8.3,42.5,8,41.8,8,41V7c0-0.8,0.3-1.5,0.9-2.1S10.2,4,11,4h18.05L40,14.95V41
	c0,0.8-0.3,1.5-0.9,2.1C38.5,43.7,37.8,44,37,44H11z M11,41h26l0,0l0,0V16.3h-9.45V7H11l0,0l0,0V41L11,41L11,41z M11,41L11,41L11,41
	V16.3V7l0,0l0,0V41L11,41L11,41z"/>
<g>
	<path fill="#73444C" d="M14.481,33.739c0.31-0.544,0.733-0.967,1.271-1.271c0.535-0.303,1.139-0.455,1.805-0.455
		c0.779,0,1.463,0.2,2.051,0.601c0.586,0.399,0.996,0.953,1.229,1.66h-1.609c-0.16-0.334-0.385-0.584-0.676-0.75
		c-0.289-0.167-0.625-0.25-1.004-0.25c-0.406,0-0.77,0.095-1.086,0.284c-0.316,0.19-0.563,0.459-0.74,0.806
		c-0.176,0.347-0.264,0.753-0.264,1.22c0,0.46,0.088,0.865,0.264,1.215c0.178,0.351,0.424,0.62,0.74,0.811
		c0.316,0.189,0.68,0.284,1.086,0.284c0.379,0,0.715-0.085,1.004-0.255c0.291-0.17,0.516-0.421,0.676-0.755h1.609
		c-0.232,0.714-0.641,1.269-1.225,1.665s-1.268,0.595-2.055,0.595c-0.666,0-1.27-0.151-1.805-0.454
		c-0.537-0.304-0.96-0.726-1.271-1.266s-0.465-1.153-0.465-1.84S14.171,34.282,14.481,33.739z"/>
	<path fill="#73444C" d="M23.132,38.904c-0.391-0.167-0.698-0.407-0.925-0.721c-0.228-0.313-0.344-0.683-0.351-1.109h1.5
		c0.021,0.286,0.122,0.514,0.306,0.68c0.183,0.167,0.435,0.25,0.755,0.25c0.326,0,0.583-0.078,0.77-0.235
		c0.187-0.156,0.28-0.361,0.28-0.614c0-0.207-0.063-0.377-0.19-0.511c-0.126-0.133-0.285-0.238-0.475-0.314
		c-0.19-0.077-0.452-0.162-0.785-0.255c-0.453-0.134-0.821-0.266-1.104-0.396c-0.284-0.13-0.527-0.326-0.73-0.59
		c-0.203-0.263-0.305-0.615-0.305-1.055c0-0.413,0.103-0.773,0.31-1.08s0.497-0.542,0.87-0.705s0.8-0.245,1.28-0.245
		c0.72,0,1.305,0.175,1.755,0.525c0.45,0.35,0.698,0.838,0.745,1.465h-1.54c-0.014-0.24-0.115-0.438-0.306-0.595
		c-0.189-0.157-0.441-0.235-0.755-0.235c-0.273,0-0.491,0.07-0.654,0.21c-0.164,0.14-0.245,0.344-0.245,0.61
		c0,0.187,0.062,0.342,0.185,0.465s0.276,0.224,0.46,0.3c0.184,0.077,0.441,0.165,0.775,0.265c0.453,0.134,0.823,0.267,1.109,0.4
		c0.287,0.134,0.534,0.333,0.74,0.6c0.207,0.267,0.311,0.617,0.311,1.051c0,0.373-0.097,0.72-0.29,1.039
		c-0.193,0.32-0.477,0.575-0.851,0.766c-0.373,0.189-0.816,0.285-1.33,0.285C23.96,39.154,23.521,39.07,23.132,38.904z"/>
	<path fill="#73444C" d="M34.396,32.104l-2.56,6.98h-1.7l-2.561-6.98h1.5l1.92,5.551l1.91-5.551H34.396z"/>
</g>
</svg>
