<?xml version="1.0" encoding="utf-8"?>
<!-- Generator: Adobe Illustrator 16.0.0, SVG Export Plug-In . SVG Version: 6.00 Build 0)  -->
<!DOCTYPE svg PUBLIC "-//W3C//DTD SVG 1.1//EN" "http://www.w3.org/Graphics/SVG/1.1/DTD/svg11.dtd">
<svg version="1.1" id="Layer_1" xmlns="http://www.w3.org/2000/svg" xmlns:xlink="http://www.w3.org/1999/xlink" x="0px" y="0px"
	 width="48px" height="48px" viewBox="0 0 48 48" enable-background="new 0 0 48 48" xml:space="preserve">
<path fill="#73444C" d="M14,38V24h20v14H14z M25.5,29.5H31V27h-5.5V29.5z M25.5,35H31v-2.5h-5.5V35z M17,29.5h5.5V27H17V29.5z
	 M17,35h5.5v-2.5H17V35z M36,44H12c-1.1,0-2.042-0.392-2.825-1.175C8.392,42.041,8,41.1,8,40V8c0-1.1,0.392-2.042,1.175-2.825
	C9.958,4.392,10.9,4,12,4h16l12,12v24c0,1.1-0.392,2.041-1.175,2.825C38.041,43.608,37.1,44,36,44z M26,18V8H12v32h24V18H26z M12,18
	V8v32V18z"/>
</svg>
