<svg width="24" height="24" viewBox="0 0 24 24" fill="none" xmlns="http://www.w3.org/2000/svg">
<path d="M12.75 16.5V10.5H9.75V12H11.25V16.5H9V18H15V16.5H12.75ZM12 6C11.7775 6 11.56 6.06598 11.375 6.1896C11.19 6.31321 11.0458 6.48891 10.9606 6.69448C10.8755 6.90005 10.8532 7.12625 10.8966 7.34448C10.94 7.56271 11.0472 7.76316 11.2045 7.9205C11.3618 8.07783 11.5623 8.18498 11.7805 8.22838C11.9988 8.27179 12.225 8.24951 12.4305 8.16436C12.6361 8.07922 12.8118 7.93502 12.9354 7.75002C13.059 7.56501 13.125 7.3475 13.125 7.125C13.125 6.82663 13.0065 6.54048 12.7955 6.3295C12.5845 6.11853 12.2984 6 12 6Z" fill="#7C5057"/>
<path d="M19.5 21H4.5C4.1023 20.9996 3.721 20.8414 3.43978 20.5602C3.15856 20.279 3.0004 19.8977 3 19.5V4.5C3.0004 4.1023 3.15856 3.721 3.43978 3.43978C3.721 3.15856 4.1023 3.0004 4.5 3H19.5C19.8977 3.0004 20.279 3.15856 20.5602 3.43978C20.8414 3.721 20.9996 4.1023 21 4.5V19.5C20.9996 19.8977 20.8414 20.279 20.5602 20.5602C20.279 20.8414 19.8977 20.9996 19.5 21ZM4.5 4.5V19.5H19.5V4.5H4.5Z" fill="#73444C"/>
</svg>
