<?xml version="1.0" encoding="utf-8"?>
<!-- Generator: Adobe Illustrator 16.0.0, SVG Export Plug-In . SVG Version: 6.00 Build 0)  -->
<!DOCTYPE svg PUBLIC "-//W3C//DTD SVG 1.1//EN" "http://www.w3.org/Graphics/SVG/1.1/DTD/svg11.dtd">
<svg version="1.1" id="Layer_1" xmlns="http://www.w3.org/2000/svg" xmlns:xlink="http://www.w3.org/1999/xlink" x="0px" y="0px"
	 width="48px" height="48px" viewBox="0 0 48 48" enable-background="new 0 0 48 48" xml:space="preserve">
<path fill="#73444C" d="M32.9,15.6V9H15.1v6.6h-3V6h23.8v9.6H32.9z M7,18.6c0,0,0.217,0,0.65,0c0.434,0,0.983,0,1.65,0h29.4
	c0.667,0,1.216,0,1.649,0s0.65,0,0.65,0h-5.1H12.1H7z M36.95,23.35c0.399,0,0.75-0.15,1.05-0.45c0.3-0.3,0.45-0.65,0.45-1.05
	S38.3,21.1,38,20.8c-0.3-0.3-0.65-0.45-1.05-0.45c-0.4,0-0.75,0.15-1.05,0.45c-0.301,0.3-0.45,0.65-0.45,1.05S35.6,22.6,35.9,22.9
	C36.2,23.2,36.55,23.35,36.95,23.35z M32.9,39v-9.6H15.1V39H32.9z M35.9,42H12.1v-8.8H4V20.9c0-1.5,0.508-2.758,1.525-3.775
	S7.8,15.6,9.3,15.6h29.4c1.5,0,2.759,0.508,3.774,1.525C43.492,18.142,44,19.4,44,20.9v12.3h-8.1V42z M41,30.2v-9.3
	c0-0.667-0.217-1.216-0.65-1.65S39.367,18.6,38.7,18.6H9.3c-0.667,0-1.216,0.216-1.65,0.65C7.217,19.684,7,20.233,7,20.9v9.3h5.1
	v-3.8h23.8v3.8H41z"/>
</svg>
