<svg width="19" height="18" viewBox="0 0 19 18" fill="none" xmlns="http://www.w3.org/2000/svg">
<path d="M16.9149 17.9939H16.7972C3.19805 17.2118 1.26716 5.73727 0.997257 2.23539C0.955073 1.6864 1.13268 1.14314 1.49102 0.7251C1.84936 0.307059 2.35908 0.0484759 2.90807 0.00622934C2.96297 0.00207691 3.01811 6.4888e-07 3.07347 6.4888e-07H6.72069C6.9979 -0.000267711 7.26881 0.0827099 7.49832 0.238185C7.72783 0.39366 7.90537 0.61447 8.00794 0.872011L9.05989 3.46036C9.16117 3.71196 9.18631 3.98777 9.13217 4.25353C9.07804 4.5193 8.94701 4.7633 8.75538 4.95523L7.28127 6.44319C7.51059 7.75212 8.13693 8.95886 9.07535 9.89975C10.0138 10.8406 11.2188 11.4702 12.5272 11.7029L14.029 10.215C14.2238 10.0255 14.4701 9.89749 14.7371 9.84703C15.0042 9.79657 15.2802 9.82585 15.5308 9.93123L18.1399 10.9763C18.3935 11.0821 18.6099 11.261 18.7615 11.4902C18.9131 11.7195 18.9931 11.9887 18.9911 12.2635V15.9176C18.9911 16.4683 18.7724 16.9964 18.383 17.3858C17.9936 17.7751 17.4655 17.9939 16.9149 17.9939ZM3.07347 1.38414C2.98259 1.38387 2.89254 1.4015 2.80847 1.43603C2.7244 1.47056 2.64795 1.52131 2.58349 1.58538C2.51904 1.64945 2.46783 1.72559 2.4328 1.80945C2.39777 1.89331 2.3796 1.98325 2.37932 2.07414C2.37932 2.09352 2.38002 2.11266 2.3814 2.13158C2.69975 6.22864 4.74136 15.9176 16.8734 16.6097C17.0565 16.6207 17.2366 16.5585 17.3739 16.4367C17.5112 16.315 17.5945 16.1437 17.6056 15.9606L17.607 15.9176V12.2635L14.9979 11.2185L13.0116 13.1909L12.6794 13.1494C6.6584 12.395 5.84176 6.37398 5.84176 6.31169L5.80023 5.9795L7.76572 3.99325L6.72761 1.38414H3.07347Z" fill="#73444C"/>
</svg>
